#N canvas 2648 255 524 615 12;
#X obj 91 283 pad.scope~;
#X obj 92 216 dac~;
#X obj 90 146 *~ 0.9;
#X obj 198 79 hsl 64 15 0.01 0.9 1 0 empty empty empty -2 -8 0 10 -262144
-1 -1 3536 1;
#X obj 195 28 loadbang;
#X obj 92 80 hsl 64 15 50 1760 1 0 empty empty empty -2 -8 0 10 -262144
-1 -1 2900 1;
#X obj 89 30 loadbang;
#X obj 89 106 osc~ 0.5;
#N canvas 624 377 600 307 to-fpga-passthrough 1;
#X obj 58 209 outlet~;
#X obj 59 75 inlet~;
#X obj 128 75 r sleepgrain;
#X msg 327 171 setsleepgrain \$1;
#X floatatom 438 117 5 0 0 0 - - -;
#X obj 327 202 s sleepgrain;
#X msg 382 75 2000;
#X msg 327 118 400;
#X msg 327 76 2500;
#X msg 383 117 200;
#X obj 438 40 loadbang;
#X msg 438 74 700;
#X obj 58 147 fpga_passthrough~;
#X obj 206 209 block~ 64;
#X connect 1 0 12 0;
#X connect 3 0 5 0;
#X connect 4 0 3 0;
#X connect 6 0 3 0;
#X connect 7 0 3 0;
#X connect 8 0 3 0;
#X connect 9 0 3 0;
#X connect 10 0 11 0;
#X connect 11 0 3 0;
#X connect 12 0 0 0;
#X restore 91 179 pd to-fpga-passthrough;
#X msg 89 56 440;
#X msg 195 53 0.125;
#X connect 2 0 8 0;
#X connect 3 0 2 1;
#X connect 4 0 10 0;
#X connect 5 0 7 0;
#X connect 6 0 9 0;
#X connect 7 0 2 0;
#X connect 8 0 1 0;
#X connect 8 0 1 1;
#X connect 8 0 0 0;
#X connect 9 0 5 0;
#X connect 10 0 3 0;
