#N canvas 2648 255 524 615 12;
#N canvas 3014 278 553 243 to-fpga-mass-interaction 0;
#X obj 77 184 outlet~;
#X obj 78 50 inlet~;
#X obj 256 50 inlet;
#X obj 77 122 fpga_mass_interaction~ 0.5;
#X obj 147 50 r sleepgrain;
#X msg 346 146 setsleepgrain \$1;
#X floatatom 457 92 5 0 0 0 - - -;
#X obj 346 177 s sleepgrain;
#X msg 401 50 2000;
#X msg 346 93 400;
#X msg 346 51 2500;
#X msg 402 92 200;
#X obj 457 15 loadbang;
#X msg 457 49 700;
#X obj 225 184 block~ 64;
#X connect 1 0 3 0;
#X connect 2 0 3 2;
#X connect 3 0 0 0;
#X connect 4 0 3 0;
#X connect 5 0 7 0;
#X connect 6 0 5 0;
#X connect 8 0 5 0;
#X connect 9 0 5 0;
#X connect 10 0 5 0;
#X connect 11 0 5 0;
#X connect 12 0 13 0;
#X connect 13 0 5 0;
#X restore 89 174 pd to-fpga-mass-interaction;
#X obj 94 274 pad.scope~;
#X obj 109 237 dac~;
#X obj 273 10 loadbang;
#X obj 276 63 hsl 128 15 0.01 1 1 0 empty empty empty -2 -8 0 10 -262144
-1 -1 8877 1;
#X obj 90 146 *~ 0.9;
#X obj 198 61 hsl 64 15 0.01 0.9 1 0 empty empty empty -2 -8 0 10 -262144
-1 -1 4435 1;
#X obj 195 10 loadbang;
#X msg 195 36 0.8;
#X obj 92 63 hsl 64 15 0.5 440 1 0 empty empty empty -2 -8 0 10 -262144
-1 -1 644 1;
#X obj 89 13 loadbang;
#X msg 89 39 1;
#X msg 273 38 0.25;
#X obj 89 119 -~ 0.5;
#X obj 89 89 phasor~ 0.5;
#X connect 0 0 2 0;
#X connect 0 0 2 1;
#X connect 0 0 1 0;
#X connect 3 0 12 0;
#X connect 4 0 0 1;
#X connect 5 0 0 0;
#X connect 6 0 5 1;
#X connect 7 0 8 0;
#X connect 8 0 6 0;
#X connect 9 0 14 0;
#X connect 10 0 11 0;
#X connect 11 0 9 0;
#X connect 12 0 4 0;
#X connect 13 0 5 0;
#X connect 14 0 13 0;
