#N canvas 2223 185 1062 801 12;
#X obj 36 117 -~ 0.5;
#X obj 28 283 dac~;
#X floatatom 783 281 7 0 0 0 - - -;
#X floatatom 637 136 7 0 0 0 - - -;
#X obj 0 -45 cnv 15 1000 60 empty empty Buffer_Request_Time_Interval_Measurements
20 12 0 16 -233017 -1 0;
#X floatatom 774 136 7 0 0 0 - - -;
#X floatatom 636 239 0 0 0 0 - - -;
#X text 682 241 CPU load;
#X msg 231 182 setsleepgrain \$1;
#X floatatom 342 128 5 0 0 0 - - -;
#X msg 512 83 set 256;
#X msg 437 83 set 512;
#X msg 437 118 set 128;
#X msg 512 118 set 64;
#X msg 437 152 set 32;
#X msg 512 152 set 16;
#X obj 437 210 s blocksize;
#X text 852 281 standard deviation;
#X text 709 136 mean;
#X text 845 136 minimum;
#N canvas 0 59 1020 620 cpu 0;
#X obj 45 117 cputime;
#X obj 45 89 t b b;
#X obj 45 177 * 0.1;
#X obj 45 146 int;
#X obj 44 10 loadbang;
#X obj 43 36 tgl 15 0 empty empty empty 17 7 0 10 -262144 -1 -1 1 1
;
#X obj 45 218 outlet;
#X obj 45 61 metro 1000;
#X connect 0 0 3 0;
#X connect 1 0 0 0;
#X connect 1 1 0 1;
#X connect 2 0 6 0;
#X connect 3 0 2 0;
#X connect 4 0 5 0;
#X connect 5 0 7 0;
#X connect 7 0 1 0;
#X restore 636 185 pd cpu;
#X obj 95 215 s buf_interv;
#X obj 637 81 r buf_interv;
#X obj 783 224 r buf_interv;
#X obj 774 81 r buf_interv;
#N canvas 1711 276 491 401 timimg 1;
#X obj 75 243 outlet~;
#X obj 78 34 inlet~;
#X obj 185 257 outlet;
#X obj 77 122 fpga_timing_measurements~, f 37;
#X msg 144 80 getsleepgrain;
#X floatatom 260 156 5 0 0 0 - - -;
#X obj 308 41 r blocksize;
#X obj 147 35 r sleepgrain;
#X obj 185 227 f;
#X obj 186 150 loadbang;
#X obj 185 175 tgl 15 0 empty empty empty 17 7 0 10 -262144 -1 -1 1
1;
#X obj 308 79 block~ 512;
#X obj 185 198 metro 200;
#X connect 1 0 3 0;
#X connect 3 0 0 0;
#X connect 3 2 5 0;
#X connect 3 3 8 1;
#X connect 4 0 3 0;
#X connect 6 0 11 0;
#X connect 7 0 3 0;
#X connect 8 0 2 0;
#X connect 9 0 10 0;
#X connect 10 0 12 0;
#X connect 12 0 8 0;
#X restore 35 179 pd timimg;
#X obj 231 213 s sleepgrain;
#N canvas 0 59 1222 459 histogram 1;
#X obj 51 265 list prepend 0;
#X obj 50 68 tgl 15 0 empty empty empty 17 7 0 10 -262144 -1 -1 1 1
;
#X obj 51 300 s timing-histogram;
#X msg 96 162 relative;
#X obj 50 95 metro 100;
#X msg 50 162 leak;
#X obj 50 129 t b b, f 7;
#X obj 51 232 lhist 0 10000 100 10;
#X obj 93 201 r buf_interv;
#X obj 50 36 loadbang;
#N canvas 0 50 450 250 (subpatch) 0;
#X array timing-histogram 100 float 1;
#A 0 0 1.54726e-13 4.8854e-14 1 2.71274e-13 9.7094e-15 0 8.36547e-28
0 0 0 0 0 0 0 0 0 0 0 0 0 0 0 0 0 0 0 0 0 0 0 0 0 0 0 0 0 0 0 0 0 0
0 0 0 0 0 0 0 0 0 0 0 0 0 0 0 0 0 0 0 0 0 0 0 0 0 0 0 0 0 0 0 0 0 0
0 0 0 0 0 0 0 0 0 0 0 0 0 0 0 0 0 0 0 0 0 0 0 0;
#X coords 0 1 99 0 799 264 1 0 0;
#X restore 293 62 graph;
#X text 274 334 0;
#X text 1011 362 time in us;
#X text 670 334 5000;
#X text 870 334 7500;
#X text 472 334 2500;
#X text 1083 333 10000;
#X text 261 56 0.2;
#X text 254 118 0.16;
#X text 261 182 0.1;
#X text 254 246 0.05;
#X text 215 29 relative frequency;
#X connect 0 0 2 0;
#X connect 1 0 4 0;
#X connect 3 0 7 0;
#X connect 4 0 6 0;
#X connect 5 0 7 0;
#X connect 6 0 5 0;
#X connect 6 1 3 0;
#X connect 7 0 0 0;
#X connect 8 0 7 0;
#X connect 9 0 1 0;
#X restore 431 275 pd histogram;
#X msg 286 86 2000;
#X msg 231 129 400;
#X msg 342 85 500;
#X obj 637 108 lavg 500;
#X obj 783 253 lstd 500;
#X text 32 35 Global Block Size: 64;
#X obj 342 51 loadbang;
#X msg 231 87 3000;
#X text 158 88 (default);
#X obj 35 87 phasor~ 440;
#X obj 36 148 *~ 0.01;
#X obj 848 113 f;
#X obj 774 109 min 100000;
#X msg 880 75 999999;
#X msg 287 128 100;
#X msg 376 153 10;
#X connect 0 0 38 0;
#X connect 8 0 26 0;
#X connect 9 0 8 0;
#X connect 10 0 16 0;
#X connect 11 0 16 0;
#X connect 12 0 16 0;
#X connect 13 0 16 0;
#X connect 14 0 16 0;
#X connect 15 0 16 0;
#X connect 20 0 6 0;
#X connect 22 0 31 0;
#X connect 23 0 32 0;
#X connect 24 0 40 0;
#X connect 25 0 1 0;
#X connect 25 0 1 1;
#X connect 25 1 21 0;
#X connect 28 0 8 0;
#X connect 29 0 8 0;
#X connect 30 0 8 0;
#X connect 31 0 3 0;
#X connect 32 0 2 0;
#X connect 34 0 13 0;
#X connect 34 0 30 0;
#X connect 35 0 8 0;
#X connect 37 0 0 0;
#X connect 38 0 25 0;
#X connect 39 0 40 1;
#X connect 40 0 5 0;
#X connect 40 0 39 0;
#X connect 41 0 40 1;
#X connect 42 0 8 0;
#X connect 43 0 8 0;
