#N canvas 2017 339 511 362 10;
#X obj 180 207 dac~, f 10;
#X floatatom 415 183 5 0 0 0 - - -;
#X floatatom 384 232 5 0 0 0 - - -;
#X obj 384 206 sleepgrain;
#X obj 391 183 bng 15 250 50 0 empty empty empty 17 7 0 10 -262144
-1 -1;
#X obj 384 124 loadbang, f 10;
#N canvas 2528 504 342 307 fpga-passthrough 1;
#X obj 129 161 fpga_passthrough~;
#X obj 76 27 inlet~;
#X obj 77 226 outlet~;
#X obj 199 228 block~ 16;
#X obj 145 28 inlet;
#X obj 130 118 *~ 1, f 5;
#X obj 157 66 - 1;
#X obj 157 90 abs;
#X obj 77 118 *~ 0, f 5;
#X connect 0 0 2 0;
#X connect 1 0 5 0;
#X connect 1 0 8 0;
#X connect 4 0 6 0;
#X connect 4 0 8 1;
#X connect 5 0 0 0;
#X connect 6 0 7 0;
#X connect 7 0 5 1;
#X connect 8 0 2 0;
#X restore 180 130 pd fpga-passthrough;
#X obj 291 100 tgl 15 0 empty empty empty 17 7 0 10 -262144 -1 -1 0
1;
#X text 316 93 bypass FPGA;
#X msg 384 152 500;
#X obj 180 72 adc~;
#X obj 81 217 block~ 16;
#X msg 81 137 \; pd dsp 1;
#X obj 79 102 loadbang;
#X connect 1 0 3 0;
#X connect 3 0 2 0;
#X connect 4 0 3 0;
#X connect 5 0 9 0;
#X connect 6 0 0 0;
#X connect 7 0 6 1;
#X connect 9 0 3 0;
#X connect 10 0 6 0;
#X connect 13 0 12 0;
