#N canvas 2017 339 511 362 10;
#N canvas 588 231 747 545 latency-meter 0;
#X obj 26 68 tabwrite~ \$0-clicks;
#X obj 194 172 tabread \$0-clicks;
#X obj 194 145 t f f;
#X floatatom 194 273 10 0 0 0 - - -;
#X obj 194 248 max;
#X msg 209 224 0;
#X obj 194 97 t b b;
#X obj 194 395 > 0;
#X obj 194 447 f;
#X obj 194 421 sel 1;
#X obj 26 32 inlet~;
#X obj 194 28 inlet;
#X msg 25 160 arrayviewlistnew;
#X obj 25 190 s \$0-clicks;
#X msg 25 255 \; pd dsp 1;
#X obj 25 221 loadbang;
#X obj 209 50 bng 15 250 50 0 empty empty empty 17 7 0 10 -262144 -1
-1;
#X obj 221 335 f;
#X obj 194 306 t f b;
#X obj 194 366 -;
#X obj 194 196 abs;
#X obj 343 382 samplerate~;
#X obj 328 447 /;
#X obj 343 419 * 0.001;
#X obj 328 350 t f b;
#X obj 194 478 outlet;
#X obj 328 477 outlet;
#X text 240 477 samples;
#X text 371 477 milliseconds;
#N canvas 0 22 450 300 (subpatch) 0;
#X array \$0-clicks 512 float 2;
#X coords 0 1 512 -1 200 140 1;
#X restore 339 72 graph;
#X obj 194 72 delay 500;
#X text 30 508 find index of absolute maximum in \$0-clicks;
#N canvas 585 375 251 277 until-512 0;
#X obj 54 39 inlet;
#X obj 54 137 until;
#X obj 54 196 f;
#X obj 81 196 + 1;
#X obj 54 72 t b b;
#X msg 69 169 1;
#X obj 54 230 outlet;
#X msg 54 104 512;
#X connect 0 0 4 0;
#X connect 1 0 2 0;
#X connect 2 0 3 0;
#X connect 2 0 6 0;
#X connect 3 0 2 1;
#X connect 4 0 7 0;
#X connect 4 1 5 0;
#X connect 5 0 2 1;
#X connect 7 0 1 0;
#X restore 194 121 pd until-512;
#X connect 1 0 20 0;
#X connect 2 0 1 0;
#X connect 2 1 8 1;
#X connect 3 0 4 1;
#X connect 3 0 18 0;
#X connect 4 0 3 0;
#X connect 5 0 4 1;
#X connect 6 0 32 0;
#X connect 6 1 5 0;
#X connect 7 0 9 0;
#X connect 8 0 25 0;
#X connect 8 0 24 0;
#X connect 9 0 8 0;
#X connect 10 0 0 0;
#X connect 11 0 0 0;
#X connect 11 0 30 0;
#X connect 12 0 13 0;
#X connect 15 0 14 0;
#X connect 16 0 30 0;
#X connect 17 0 19 1;
#X connect 18 0 17 1;
#X connect 18 0 19 0;
#X connect 18 1 17 0;
#X connect 19 0 7 0;
#X connect 20 0 4 0;
#X connect 21 0 23 0;
#X connect 22 0 26 0;
#X connect 23 0 22 1;
#X connect 24 0 22 0;
#X connect 24 1 21 0;
#X connect 30 0 6 0;
#X connect 32 0 2 0;
#X restore 66 211 pd latency-meter;
#X obj 178 82 bng 16 250 50 0 empty empty empty 17 7 0 10 -262144 -260097
-1;
#X floatatom 66 239 5 0 0 0 - - -;
#X floatatom 159 239 10 0 0 0 - - -;
#X text 99 240 samples;
#X text 229 239 milliseconds;
#N canvas 209 294 368 230 click 0;
#X obj 32 54 inlet;
#X obj 179 165 table \$0-click 3;
#X obj 178 134 tabwrite \$0-click;
#X obj 178 102 unpack;
#X obj 178 37 loadbang;
#X obj 32 157 outlet~;
#X obj 32 117 tabplay~ \$0-click;
#X msg 181 68 0.25 0 \, 0.5 1 \, 0.25 2;
#X connect 0 0 6 0;
#X connect 3 0 2 0;
#X connect 3 1 2 1;
#X connect 4 0 7 0;
#X connect 6 0 5 0;
#X connect 7 0 3 0;
#X restore 180 103 pd click;
#X obj 178 36 loadbang, f 10;
#X obj 159 257 print latency(ms);
#X obj 180 207 dac~, f 10;
#X floatatom 415 183 5 0 0 0 - - -;
#X floatatom 384 232 5 0 0 0 - - -;
#X obj 237 154 osc~ 440;
#X obj 384 206 sleepgrain;
#X obj 391 183 bng 15 250 50 0 empty empty empty 17 7 0 10 -262144
-1 -1;
#X obj 178 58 metro 1000;
#X obj 66 185 adc~;
#X obj 384 124 loadbang, f 10;
#X text 14 327 based on Katja Vetter Dec. 2012;
#X text 64 277 roundtrip latency meter for 512 samples max;
#N canvas 2528 504 342 307 fpga-passthrough 1;
#X obj 129 161 fpga_passthrough~;
#X obj 76 27 inlet~;
#X obj 77 226 outlet~;
#X obj 199 228 block~ 16;
#X obj 145 28 inlet;
#X obj 130 118 *~ 1, f 5;
#X obj 157 66 - 1;
#X obj 157 90 abs;
#X obj 210 45 loadbang;
#X msg 210 67 0;
#X obj 77 118 *~ 0, f 5;
#X connect 0 0 2 0;
#X connect 1 0 5 0;
#X connect 1 0 10 0;
#X connect 4 0 6 0;
#X connect 4 0 10 1;
#X connect 5 0 0 0;
#X connect 6 0 7 0;
#X connect 7 0 5 1;
#X connect 8 0 9 0;
#X connect 10 0 2 0;
#X restore 180 130 pd fpga-passthrough;
#X obj 237 180 *~ 0.02;
#X obj 291 100 tgl 15 0 empty empty empty 17 7 0 10 -262144 -1 -1 0
1;
#X text 316 93 bypass FPGA;
#X msg 384 152 500;
#X connect 0 0 2 0;
#X connect 0 1 3 0;
#X connect 1 0 6 0;
#X connect 1 0 0 1;
#X connect 3 0 8 0;
#X connect 6 0 20 0;
#X connect 7 0 15 0;
#X connect 10 0 13 0;
#X connect 12 0 21 0;
#X connect 13 0 11 0;
#X connect 14 0 13 0;
#X connect 15 0 1 0;
#X connect 16 0 0 0;
#X connect 17 0 24 0;
#X connect 20 0 9 0;
#X connect 21 0 9 1;
#X connect 22 0 20 1;
#X connect 24 0 13 0;
